<svg width="24" height="24" viewBox="0 0 24 24" fill="none" xmlns="http://www.w3.org/2000/svg">
<path d="M20 21V19C20 17.9391 19.5786 16.9217 18.8284 16.1716C18.0783 15.4214 17.0609 15 16 15H8C6.93913 15 5.92172 15.4214 5.17157 16.1716C4.42143 16.9217 4 17.9391 4 19V21" stroke="url(#paint0_linear)" stroke-width="2" stroke-linecap="round" stroke-linejoin="round"/>
<path d="M12 11C14.2091 11 16 9.20914 16 7C16 4.79086 14.2091 3 12 3C9.79086 3 8 4.79086 8 7C8 9.20914 9.79086 11 12 11Z" stroke="url(#paint1_linear)" stroke-width="2" stroke-linecap="round" stroke-linejoin="round"/>
<defs>
<linearGradient id="paint0_linear" x1="4" y1="15" x2="20.3583" y2="16.2284" gradientUnits="userSpaceOnUse">
<stop stop-color="#F27121"/>
<stop offset="0.477347" stop-color="#E94057"/>
<stop offset="1" stop-color="#8A2387"/>
</linearGradient>
<linearGradient id="paint1_linear" x1="8" y1="3" x2="16.2188" y2="3.23144" gradientUnits="userSpaceOnUse">
<stop stop-color="#F27121"/>
<stop offset="0.477347" stop-color="#E94057"/>
<stop offset="1" stop-color="#8A2387"/>
</linearGradient>
</defs>
</svg>
