<svg width="50" height="50" viewBox="0 0 50 35" fill="none" xmlns="http://www.w3.org/2000/svg">
<mask id="path-1-inside-1" fill="white">
<path d="M48.5 17C49.3284 17 50.0047 17.6722 49.955 18.4991C49.7404 22.0715 48.7608 25.5624 47.0757 28.7329C45.1556 32.3457 42.3781 35.432 38.987 37.7211C35.596 40.0101 31.6949 41.4319 27.6262 41.8617C23.5575 42.2915 19.4455 41.7161 15.651 40.1861C11.8565 38.6561 8.4955 36.2182 5.86291 33.0864C3.23031 29.9545 1.40659 26.2244 0.551761 22.2234C-0.303063 18.2223 -0.162861 14.0726 0.960065 10.1384C1.94552 6.68581 3.66139 3.49176 5.98483 0.769678C6.52265 0.139573 7.47604 0.124483 8.07276 0.699125V0.699125C8.66948 1.27377 8.68299 2.22023 8.15033 2.85472C6.1647 5.21996 4.69553 7.98141 3.84486 10.9618C2.85668 14.4239 2.7333 18.0756 3.48555 21.5966C4.2378 25.1175 5.84267 28.4 8.15936 31.156C10.476 33.912 13.4337 36.0574 16.7729 37.4038C20.112 38.7502 23.7306 39.2565 27.3111 38.8783C30.8915 38.5001 34.3245 37.2489 37.3086 35.2345C40.2928 33.2202 42.7369 30.5042 44.4266 27.325C45.8813 24.5881 46.7385 21.5799 46.9489 18.4989C47.0053 17.6724 47.6716 17 48.5 17V17Z"/>
</mask>
<path d="M48.5 17C49.3284 17 50.0047 17.6722 49.955 18.4991C49.7404 22.0715 48.7608 25.5624 47.0757 28.7329C45.1556 32.3457 42.3781 35.432 38.987 37.7211C35.596 40.0101 31.6949 41.4319 27.6262 41.8617C23.5575 42.2915 19.4455 41.7161 15.651 40.1861C11.8565 38.6561 8.4955 36.2182 5.86291 33.0864C3.23031 29.9545 1.40659 26.2244 0.551761 22.2234C-0.303063 18.2223 -0.162861 14.0726 0.960065 10.1384C1.94552 6.68581 3.66139 3.49176 5.98483 0.769678C6.52265 0.139573 7.47604 0.124483 8.07276 0.699125V0.699125C8.66948 1.27377 8.68299 2.22023 8.15033 2.85472C6.1647 5.21996 4.69553 7.98141 3.84486 10.9618C2.85668 14.4239 2.7333 18.0756 3.48555 21.5966C4.2378 25.1175 5.84267 28.4 8.15936 31.156C10.476 33.912 13.4337 36.0574 16.7729 37.4038C20.112 38.7502 23.7306 39.2565 27.3111 38.8783C30.8915 38.5001 34.3245 37.2489 37.3086 35.2345C40.2928 33.2202 42.7369 30.5042 44.4266 27.325C45.8813 24.5881 46.7385 21.5799 46.9489 18.4989C47.0053 17.6724 47.6716 17 48.5 17V17Z" stroke="url(#paint0_linear)" stroke-width="3" mask="url(#path-1-inside-1)"/>
<defs>
<linearGradient id="paint0_linear" x1="0" y1="-8" x2="51.3672" y2="-6.55352" gradientUnits="userSpaceOnUse">
<stop stop-color="#F27121"/>
<stop offset="0.477347" stop-color="#E94057"/>
<stop offset="1" stop-color="#8A2387"/>
</linearGradient>
</defs>
</svg>
